<?xml version="1.0" encoding="UTF-8" standalone="no"?>
<svg
   xmlns:dc="http://purl.org/dc/elements/1.1/"
   xmlns:cc="http://creativecommons.org/ns#"
   xmlns:rdf="http://www.w3.org/1999/02/22-rdf-syntax-ns#"
   xmlns:svg="http://www.w3.org/2000/svg"
   xmlns="http://www.w3.org/2000/svg"
   xmlns:sodipodi="http://sodipodi.sourceforge.net/DTD/sodipodi-0.dtd"
   xmlns:inkscape="http://www.inkscape.org/namespaces/inkscape"
   viewBox="0 0 429.49332 241.86667"
   height="241.86667"
   width="429.49332"
   xml:space="preserve"
   id="svg2"
   version="1.1"
   sodipodi:docname="src_static_files_logos_IST_LOGO_NEW_BASE_RGB_noPO.svg"
   inkscape:version="0.92.3 (2405546, 2018-03-11)"><sodipodi:namedview
     pagecolor="#ffffff"
     bordercolor="#666666"
     borderopacity="1"
     objecttolerance="10"
     gridtolerance="10"
     guidetolerance="10"
     inkscape:pageopacity="0"
     inkscape:pageshadow="2"
     inkscape:window-width="1920"
     inkscape:window-height="1017"
     id="namedview39"
     showgrid="false"
     inkscape:zoom="2.6077239"
     inkscape:cx="186.95179"
     inkscape:cy="137.73833"
     inkscape:window-x="3832"
     inkscape:window-y="-8"
     inkscape:window-maximized="1"
     inkscape:current-layer="layer3" /><metadata
     id="metadata8"><rdf:RDF><cc:Work
         rdf:about=""><dc:format>image/svg+xml</dc:format><dc:type
           rdf:resource="http://purl.org/dc/dcmitype/StillImage" /></cc:Work></rdf:RDF></metadata><defs
     id="defs6" /><g
     transform="matrix(1.3333333,0,0,-1.3333333,0,241.86667)"
     id="g10"><g
       transform="scale(0.1)"
       id="g12"><path
         id="path14"
         style="fill:#517fa4;fill-opacity:1;fill-rule:evenodd;stroke:none"
         d="m 2124.26,1126.29 c 0.12,0 0,0 0.12,0.13 0,0 0.12,-0.13 0.24,-0.13 -0.12,0 -0.24,0 -0.36,0 z M 589.324,1286.96 c -16.004,-8.98 -36.129,-9.97 -58.136,-8.61 -60.379,-12.74 -127.583,-13.74 -187.958,-26.6 -24.25,-4.37 -49.195,-7.98 -75.683,-8.49 -4.942,-5.72 -12.344,-6.85 -22.367,-3.6 -22.711,-7.36 -46.235,-13.12 -72.485,-14.12 -28.004,-11.73 -67.922,-8.74 -71.105,-46.56 -0.332,-6.49 5.183,-9 5.426,-14.98 11.636,-23.73 36.371,-35.84 69.902,-35.97 -1.16,-11.97 -11.066,-9.1 -19.168,-8.98 -7.422,-3.5 -12.969,-10.12 -23.426,-8 -16.367,-54.05 21.524,-70.77 70.5,-72.77 22.469,4.61 47.653,2.48 60.383,-1.38 -17.551,-7.97 -37.676,-11.73 -59.32,-12.6 -42.614,-11 -88.75,-16.36 -134.762,-21.61 -10.7266,6.62 -12,-3.499 -21.4297,0.87 2.2422,-5.982 2.6992,-13.091 -0.8164,-22.83 -15.7656,-0.515 1.6367,23.72 -14.3711,12.86 C 22.8672,993.465 16.0469,984.973 5.92578,982.34 0.382813,968.734 4.26172,961.246 3.32422,950.762 12.625,944.523 11.9258,931.66 18.9883,923.789 63.9414,910.93 103.016,907.938 140.906,907.191 c 0.36,1.383 0.602,2.868 0.938,4.375 15.906,-7.132 24.492,-1.636 38.035,-4.886 46.133,5.015 95.664,4.25 144.16,5.246 33.77,4.242 72.266,0.254 105.332,5.879 21.891,2.48 43.195,5.851 69.445,0.867 1.879,4.984 8.243,1.867 13.305,1.383 5.063,9.359 22.246,-2.125 21.188,17.593 9.062,-0.257 10.218,-5.726 15.519,-8.367 11.887,-6.363 13.766,4.504 25.676,-1.863 l -13.066,-19.734 c -7.786,-4.86 -19.668,-2.485 -30.735,-1.489 C 521.883,903.434 514,899.063 503.18,899.316 421.613,891.574 324.039,881.344 240.598,868.48 173.879,858 78.5234,858.512 39.4492,840.516 c -10,-4.481 -20.2422,-8.368 -23.2812,-26.211 7.0625,-29.094 28.9453,-54.926 61.1992,-56.684 2.6992,-0.742 5.3984,-1.383 8.2226,-2.121 -6.0039,-28.719 23.3052,-34.211 11.0586,-67.168 -24.125,-6.73 -50.9531,-8.742 -76.5976,-12.992 -19.429706,-28.942 10.8203,-43.93 10.1211,-71.41 24.2265,-1.871 42.0117,-1.739 62.5976,-10.969 15.6645,7.098 38.6135,1.609 60.3785,-1.512 22.125,4.121 62.258,9.231 81.809,-2 -18.945,-11.597 -41.918,-16.359 -68.383,-14.98 -15.426,-7.867 -36.011,-6.489 -50.957,-14.848 -9.301,-49.449 18.828,-81.902 73.66,-78.269 21.313,7.597 67.321,4.859 76.145,-28.223 2.125,-11 9.308,-18.719 5.426,-33.469 -14.489,-3.351 -27.891,-8.359 -44.836,-7.238 C 150.207,399.941 70.7656,393.832 3.44141,366.98 -8.19922,340.648 13.8047,336.5 9.20313,314.93 17.1055,295.699 36.6328,306.559 57.582,298.309 c 40.0078,3.5 84.047,0.132 125.816,0.761 35.555,-3.621 83.903,16.989 110.516,-9.48 -0.238,-1.25 -0.484,-2.762 -0.941,-4.25 3.179,-58.32 68.718,-32.852 112.035,-41.82 15.785,3.109 31.308,6.621 52.254,0.742 -9.883,-17.114 -33.77,-10.231 -38.469,-36.473 L 460.406,194 c 17.543,-15.48 40.035,-5.48 65.68,-16.48 51.441,6.878 132.641,15.851 135.703,-52.309 33.652,-13.609 48.953,4.109 77.809,-1.129 40.351,-1.352 76.476,4.887 117.55,2.758 17.915,7.23 39.098,8.84 62.258,7.359 74.508,6.633 146.764,16.86 224.934,17.36 17.07,2.613 28.47,15.222 53.08,5.121 L 900.637,99.582 C 894.52,67.1094 923.531,16.7188 941.535,0 1338.18,70.6719 1771.88,58.9297 2168.5,139.059 c 67.08,13.5 155.35,36.98 233.86,38.101 -3.32,27.59 8.11,64.922 -12.38,81.129 -162.17,-38.687 -326.81,-72.769 -501.01,-90.738 -24.94,-9.379 -68.5,-11.992 -92.14,-4.5 8.57,9.347 18.58,16.34 33.52,14.597 9.18,8.364 24.86,5.622 36.86,9.122 13.4,6.98 28.83,10.718 45.77,11.609 1.18,4.121 5.88,2.121 9.31,2.262 11.41,8.48 30.58,3.597 41.65,12.468 260.46,66.532 495.56,71.539 754.25,141.063 2,21.476 49.02,91.027 29.35,108.867 l 84.76,38.543 c 1.18,2.219 3.54,2.219 4.25,5.109 1.05,6.489 -11.41,4.118 -15.89,7.11 2,8.738 -8,9.609 -14.49,12.73 -4.46,-3.121 -12.58,0.129 -19.76,1.867 -0.34,-1 -0.46,-1.867 -0.7,-2.867 -5.42,1.258 -10.94,2.739 -16.37,4.117 -6.7,-4.597 -15.76,-5.367 -26.7,-2.476 -4.73,-4.012 -15.67,2.867 -20.37,-1.024 -19.55,-2.859 -39.07,-5.476 -61.45,-3.117 -7.88,-2.25 -14.12,-7.59 -26.58,-2.48 -16.48,-5.11 -38.13,-1.512 -55.8,-4.371 -1.88,-6.371 -12,1.48 -17.19,1.121 l 12.13,15.34 c 7.18,5.25 15.42,8.488 27.19,5.5 12.36,0.507 19.55,9.359 35.43,3.371 3.3,7.75 14.36,2.129 21.19,3.988 22,2.129 41.65,8.621 65.32,8.129 28.83,5.5 60.01,6.73 89.33,11.359 30.7,2.25 57.2,11.481 89.21,11.352 12.48,9.492 36.25,-0.481 44.13,16.621 5.99,30.711 -34.02,52.539 -60.5,39.578 -1.77,0.609 -3.76,1.121 -5.53,1.481 -13.42,4.5 -20.6,-1.989 -34.13,2.378 -0.94,0.262 -1.76,0.512 -2.69,0.743 -5.19,-4.731 -17.19,2.64 -23.31,-0.231 -3.42,-6.262 -15.42,2.61 -22.49,2.481 3.64,4.5 10.7,2.871 15.54,5.238 8.83,2.512 19.41,1.641 29.42,1.871 0.23,0.891 0.36,1.891 0.72,3.02 40.95,2.992 79.32,10.839 119.21,15.968 10.37,4.992 25.89,1.012 33.89,9.981 7.31,20.613 -8.46,25.851 -11.4,39.711 -33.19,7.492 -62.38,8.101 -90.74,7.23 -5.55,-3.73 -13.89,-3.121 -23.31,-0.262 -13.43,1.774 -21.08,-6.718 -37.56,0.133 -24.58,-0.359 -47.2,-4.601 -72.96,-2.992 -12.71,-4.859 -30.71,-0.988 -42.26,-7.98 -1.18,-3.239 -5.52,-1.118 -8.82,-0.887 -23.77,7.488 -45.77,-9.723 -65.44,4.269 29.77,11.098 65.92,12.219 104.76,16.598 27.52,2.371 51.77,10.09 80.5,10.609 10.46,5.852 24.25,6.622 38.71,5.493 40.37,8.621 85.09,9.359 125.34,17.847 16.24,2.992 32.85,5.371 50.5,5.75 3.42,3.731 8.36,4.473 14.94,2.25 15.19,4.992 30.83,8.852 48.38,9.492 18.7,7.852 45.31,5.852 47.31,31.059 0.37,4.25 -3.42,6.012 -3.54,10 -7.76,15.856 -24.23,23.984 -46.71,24.09 0.82,7.742 7.52,6.004 12.94,5.879 4.82,2.375 8.58,6.746 15.64,5.371 10.97,36.07 -14.46,47.195 -47.08,48.555 -15.18,-3.121 -31.88,-1.614 -40.24,0.89 11.66,5.469 24.97,7.723 39.43,8.489 28.61,7.234 59.19,10.71 89.93,14.218 7.15,-4.242 8,2.375 14.46,-0.363 -1.76,3.988 -2,8.594 0.36,15.215 10.59,0.387 -1.06,-15.848 9.65,-8.617 7.78,0.132 12.23,5.757 19.06,7.496 3.66,9.125 1.18,14.109 1.79,20.992 -6.25,4.242 -5.67,12.73 -10.37,18.098 -30.13,8.621 -56.26,10.484 -81.45,11.097 -0.23,-0.992 -0.48,-1.996 -0.69,-2.863 -10.49,4.629 -16.25,1 -25.2,3.121 -30.85,-3.375 -63.8,-2.863 -96.27,-3.504 -22.48,-2.738 -48.15,-0.258 -70.16,-3.988 -14.7,-1.508 -28.95,-3.863 -46.35,-0.512 -1.3,-3.351 -5.55,-1.226 -8.97,-0.871 -3.39,-6.367 -14.94,1.258 -14.21,-11.73 -5.89,0.125 -6.73,3.753 -10.25,5.492 -7.88,4.246 -9.06,-2.864 -17.19,1.383 -27.64,-3.504 -58.26,-1.637 -85.08,-6.372 -7.54,-1.375 -25.19,0.133 -36.14,-6.234 -8.36,2.481 -17.06,-3.117 -21.9,5.367 4.24,7.364 15.18,3.246 23.79,3.246 7.18,5.118 21.18,-1.507 29.4,1.739 27.43,9.875 63.32,9.617 98.64,15.367 5.18,3.121 13.18,1.609 20.6,1 5.88,1.867 11.18,4.86 18.37,4.47 54.36,5.37 119.45,12.12 174.99,20.62 44.62,6.97 108.27,6.62 134.31,18.61 6.7,3.12 13.4,5.59 15.4,17.72 -4.58,19.22 -19.31,36.58 -40.72,37.71 -1.77,0.36 -3.66,0.87 -5.42,1.35 4.01,19.23 -15.64,22.86 -7.4,44.7 16.01,4.62 34.02,5.87 51.08,8.74 12.82,19.36 -7.31,29.35 -6.85,47.69 -16.01,1.25 -28.01,1.25 -41.65,7.36 -10.36,-4.86 -25.89,-1.13 -40.24,0.89 -14.84,-2.75 -41.57,-6.13 -54.63,1.36 12.6,7.74 28.01,10.99 45.55,10.12 10.25,5.12 24.13,4.25 34.02,9.87 6.24,32.96 -12.58,54.41 -49.08,52.06 -14.24,-5.01 -44.83,-3.25 -50.83,18.97 -1.42,7.37 -6.25,12.35 -3.67,22.35 9.67,2.12 18.62,5.62 30.01,4.63 50.5,8.49 103.58,12.48 148.43,30.45 7.88,17.59 -6.94,20.22 -3.91,34.7 -5.15,12.86 -18.22,5.49 -32.12,11.12 -26.7,-2.38 -56.14,-0.13 -84.03,-0.51 -23.64,2.38 -56.01,-11.36 -73.78,6.26 0.22,0.87 0.46,1.87 0.71,2.86 -2.13,38.82 -45.79,21.97 -74.88,27.85 -10.34,-2 -20.7,-4.5 -34.7,-0.51 6.58,11.48 22.6,7 25.64,24.21 2.72,12.76 -11.28,14.11 -8.46,26.72 -0.93,0.25 -2,0.51 -2.82,0.64 18.47,30.83 13.28,65.79 -20.72,75.79 15.99,16.59 4.6,28.83 4.84,47.93 -4,10.23 -18.73,19.23 -30.97,16.86 -9.64,0.48 -15.89,-4.89 -28.72,0.99 -5.63,18.59 -3.41,42.31 -19.76,54.05 -11.78,10.13 -26.6,3.51 -43.79,10.87 -34.38,-4.5 -88.51,-10.36 -90.51,34.95 -22.47,9.13 -32.71,-2.74 -52.02,0.74 -26.94,0.9 -51.07,-3.22 -78.26,-1.86 -12.12,-4.74 -26.25,-5.86 -41.55,-4.86 -49.78,-4.37 -97.91,-11.38 -150.05,-11.61 -11.43,-1.77 -19.07,-10.13 -35.43,-3.38 -53.65,-2.76 -104.51,-10.73 -158.89,-12.47 -20.47,-3.5 -41.78,-5.76 -64.72,-5.14 6.58,9 17.64,9.87 28.59,11.12 119.58,34.21 251.88,46.69 381.34,64.18 4,21.58 -3.67,35.69 -15.67,46.94 -211.48,-37.84 -438.99,-40.45 -656.73,-67.16 0.25,1.47 0.61,2.73 0.71,4.24 -11.4,55.92 -81.09,60.8 -131.59,51.31 -29.16,-4.14 -54.71,-14.63 -85.66,-15.49 -29.19,-4.12 -55.8,-12.48 -85.93,-15.24 -5.64,-6.24 -18.34,-0.23 -26.46,-2.61 -13.79,-8.62 -32.61,-8.23 -50.04,-10.48 -16.47,-7.62 -38.59,-6.01 -58.14,-8.36 -53.89,-13.99 -116.51,-12.86 -167.47,-31.73 -3.88,-1.48 -7.52,-2.99 -13.31,-1.13 -12.58,-2.73 -23.64,-7.72 -39.77,-3.99 -22.24,-5.98 -46.13,-8.87 -71.44,-9.61 -56.26,-11.86 -114.15,-20.84 -177.834,-19.97 -9.188,-0.38 -14.121,-7.87 -26.586,-2.5 -18.606,-6.25 -37.672,-11.35 -62.258,-7.5 -12.848,-3.85 -30.25,-0.23 -43.914,-2.73 -32.137,-3 -64.481,-5.75 -97.215,-8 -33.645,8 -52.492,-9.98 -83.781,-6.37 -17.91,-3.38 -39.438,-0.49 -54.039,-9.62 -1.641,-3.35 -5.067,-3.24 -6,-7.62 -1.766,-9.84 16.843,-6.36 23.664,-10.6 -3.063,-13.22 11.886,-14.35 21.644,-19.21 6.727,4.73 18.852,-0.13 29.793,-2.76 0.34,1.51 0.578,2.86 0.821,4.37 8.339,-1.99 16.464,-4.12 24.707,-6.1 10.003,6.84 23.546,7.71 39.89,3.73 7.063,5.87 23.551,-4.37 30.735,1.5 29.066,4.25 58.257,8.11 91.902,4.61 12.008,3.37 21.309,11.63 39.918,3.75 24.707,7.62 57.195,2.38 83.785,6.76 2.602,9.48 17.762,-2.64 25.547,-1.9 l 40.131,-14.72 c -4.72,-9.75 -17.67,-5.73 -27.55,-6.73 -9.64,-1.51 -16.46,-7.88 -30.706,-1.63 -10.731,-7.63 -22.945,-12.61 -40.856,-8.24 -18.222,-0.51 -29.066,-14.24 -53.199,-5.01 -4.816,-11.73 -21.398,-3.12 -31.523,-5.85 -33.071,-3.51 -62.383,-13.25 -98.055,-12.25 -43.07,-8.49 -90.023,-10.23 -133.801,-17.08 -46.007,-3.25 -85.925,-17.23 -133.816,-17.23 -18.609,-14.25 -54.258,0.86 -66.145,-24.73 -8.937,-45.82 51.075,-78.77 90.731,-59.55 2.84,-0.64 5.664,-1.25 8.238,-1.99 20.246,-6.62 30.949,2.99 51.199,-3.63 1.418,-0.26 2.723,-0.62 3.996,-1 7.668,7.11 25.793,-3.99 34.954,0.51 5.062,9.1 23.425,-4.01 33.793,-3.89 -5.422,-6.72 -16.247,-4.37 -23.426,-7.84 -13.192,-3.64 -29.074,-2.38 -44.016,-2.89 -0.242,-1.49 -0.582,-2.87 -0.941,-4.38 -61.559,-4.73 -119.09,-16.34 -178.653,-24.21 -15.668,-7.24 -39.074,-1.38 -51.074,-14.86 -10.945,-30.7 12.699,-38.83 17.184,-59.41 49.773,-11.25 93.543,-12.25 136.16,-11.13 8.242,5.88 20.586,4.88 34.832,0.52 20.125,-2.51 31.43,10.09 56.137,-0.13 l 6.601,-29.23" /></g></g><g
     inkscape:groupmode="layer"
     id="layer3"
     inkscape:label="LETTERS"
     style="display:inline"><path
       transform="matrix(0.13333333,0,0,-0.13333333,0,241.86667)"
       id="path16"
       style="fill:#ffffff;fill-opacity:1;fill-rule:nonzero;stroke:none"
       d="m 731.547,1422.05 h 385.233 v -86.46 H 731.547 v 86.46"
       inkscape:connector-curvature="0" /><path
       transform="matrix(0.13333333,0,0,-0.13333333,0,241.86667)"
       id="path18"
       style="fill:#ffffff;fill-opacity:1;fill-rule:nonzero;stroke:none"
       d="m 731.551,1310.72 h 385.309 v -86.34 H 731.551 v 86.34"
       inkscape:connector-curvature="0" /><path
       transform="matrix(0.13333333,0,0,-0.13333333,0,241.86667)"
       id="path20"
       style="fill:#ffffff;fill-opacity:1;fill-rule:nonzero;stroke:none"
       d="m 788.094,1199.65 h 260.716 v -84.83 H 788.094 v 84.83"
       inkscape:connector-curvature="0" /><path
       transform="matrix(0.13333333,0,0,-0.13333333,0,241.86667)"
       id="path22"
       style="fill:#ffffff;fill-opacity:1;fill-rule:nonzero;stroke:none"
       d="m 788.094,1090.75 h 260.716 v -85.04 H 788.094 v 85.04"
       inkscape:connector-curvature="0" /><path
       transform="matrix(0.13333333,0,0,-0.13333333,0,241.86667)"
       id="path24"
       style="fill:#ffffff;fill-opacity:1;fill-rule:nonzero;stroke:none"
       d="M 788.094,981.605 H 1048.81 V 896.344 H 788.094 v 85.261"
       inkscape:connector-curvature="0" /><path
       transform="matrix(0.13333333,0,0,-0.13333333,0,241.86667)"
       id="path26"
       style="fill:#ffffff;fill-opacity:1;fill-rule:nonzero;stroke:none"
       d="M 788.094,872.277 H 1048.81 V 787.359 H 788.094 v 84.918"
       inkscape:connector-curvature="0" /><path
       transform="matrix(0.13333333,0,0,-0.13333333,0,241.86667)"
       id="path28"
       style="fill:#ffffff;fill-opacity:1;fill-rule:nonzero;stroke:none"
       d="M 788.094,763.18 H 1048.81 V 678.23 H 788.094 v 84.95"
       inkscape:connector-curvature="0" /><path
       transform="matrix(0.13333333,0,0,-0.13333333,0,241.86667)"
       id="path30"
       style="fill:#ffffff;fill-opacity:1;fill-rule:nonzero;stroke:none"
       d="M 731.551,653.969 H 1116.86 V 569.051 H 731.551 v 84.918"
       inkscape:connector-curvature="0" /><path
       transform="matrix(0.13333333,0,0,-0.13333333,0,241.86667)"
       id="path32"
       style="fill:#ffffff;fill-opacity:1;fill-rule:nonzero;stroke:none"
       d="M 731.551,546.84 H 1116.86 V 462 H 731.551 v 84.84"
       inkscape:connector-curvature="0" /><path
       transform="matrix(0.13333333,0,0,-0.13333333,0,241.86667)"
       id="path34"
       style="fill:#ffffff;fill-opacity:1;fill-rule:nonzero;stroke:none"
       d="m 1864.07,1422.03 h 803.42 v -86.46 h -803.42 v 86.46"
       inkscape:connector-curvature="0" /><path
       transform="matrix(0.13333333,0,0,-0.13333333,0,241.86667)"
       id="path36"
       style="fill:#ffffff;fill-opacity:1;fill-rule:nonzero;stroke:none"
       d="m 1862.72,1310.72 h 804.85 v -86.34 h -804.85 v 86.34"
       inkscape:connector-curvature="0" /><path
       transform="matrix(0.13333333,0,0,-0.13333333,0,241.86667)"
       id="path38"
       style="fill:#ffffff;fill-opacity:1;fill-rule:nonzero;stroke:none"
       d="m 2134.9,1199.65 h 260.52 v -84.83 H 2134.9 v 84.83"
       inkscape:connector-curvature="0" /><path
       transform="matrix(0.13333333,0,0,-0.13333333,0,241.86667)"
       id="path40"
       style="fill:#ffffff;fill-opacity:1;fill-rule:nonzero;stroke:none"
       d="m 2490.92,1199.65 h 178.74 v -69.6 h -178.74 v 69.6"
       inkscape:connector-curvature="0" /><path
       transform="matrix(0.13333333,0,0,-0.13333333,0,241.86667)"
       id="path42"
       style="fill:#ffffff;fill-opacity:1;fill-rule:nonzero;stroke:none"
       d="m 1861.06,1199.65 h 178.85 v -69.6 h -178.85 v 69.6"
       inkscape:connector-curvature="0" /><path
       transform="matrix(0.13333333,0,0,-0.13333333,0,241.86667)"
       id="path44"
       style="fill:#ffffff;fill-opacity:1;fill-rule:nonzero;stroke:none"
       d="m 2134.9,1090.75 h 260.52 v -85.04 H 2134.9 v 85.04"
       inkscape:connector-curvature="0" /><path
       transform="matrix(0.13333333,0,0,-0.13333333,0,241.86667)"
       id="path46"
       style="fill:#ffffff;fill-opacity:1;fill-rule:nonzero;stroke:none"
       d="m 2134.9,981.605 h 260.52 V 896.344 H 2134.9 v 85.261"
       inkscape:connector-curvature="0" /><path
       transform="matrix(0.13333333,0,0,-0.13333333,0,241.86667)"
       id="path48"
       style="fill:#ffffff;fill-opacity:1;fill-rule:nonzero;stroke:none"
       d="m 2134.9,872.277 h 260.52 V 787.359 H 2134.9 v 84.918"
       inkscape:connector-curvature="0" /><path
       transform="matrix(0.13333333,0,0,-0.13333333,0,241.86667)"
       id="path50"
       style="fill:#ffffff;fill-opacity:1;fill-rule:nonzero;stroke:none"
       d="m 2134.9,763.18 h 260.52 V 678.23 H 2134.9 v 84.95"
       inkscape:connector-curvature="0" /><path
       transform="matrix(0.13333333,0,0,-0.13333333,0,241.86667)"
       id="path52"
       style="fill:#ffffff;fill-opacity:1;fill-rule:nonzero;stroke:none"
       d="m 2073.78,653.969 h 384.82 v -84.918 h -384.82 v 84.918"
       inkscape:connector-curvature="0" /><path
       transform="matrix(0.13333333,0,0,-0.13333333,0,241.86667)"
       id="path54"
       style="fill:#ffffff;fill-opacity:1;fill-rule:nonzero;stroke:none"
       d="M 2073.78,546.84 H 2458.6 V 462 h -384.82 v 84.84"
       inkscape:connector-curvature="0" /><path
       transform="matrix(0.13333333,0,0,-0.13333333,0,241.86667)"
       id="path56"
       style="fill:#ffffff;fill-opacity:1;fill-rule:nonzero;stroke:none"
       d="m 1590.65,1199.65 h 229.78 v -72.4 h -229.78 v 72.4"
       inkscape:connector-curvature="0" /><path
       transform="matrix(0.13333333,0,0,-0.13333333,0,241.86667)"
       id="path58"
       style="fill:#ffffff;fill-opacity:1;fill-rule:nonzero;stroke:none"
       d="m 1209.84,754.961 h 244.08 v -72.512 h -244.08 v 72.512"
       inkscape:connector-curvature="0" /><path
       transform="matrix(0.13333333,0,0,-0.13333333,0,241.86667)"
       id="path60"
       style="fill:#ffffff;fill-opacity:1;fill-rule:nonzero;stroke:none"
       d="m 1819.35,1335.58 h -606.57 c 0,0 47.17,86.47 169.79,86.47 h 436.78 v -86.47"
       inkscape:connector-curvature="0" /><path
       transform="matrix(0.13333333,0,0,-0.13333333,0,241.86667)"
       id="path62"
       style="fill:#ffffff;fill-opacity:1;fill-rule:nonzero;stroke:none"
       d="m 1819.35,1224.39 h -628.16 v 60.58 c 0.24,7.55 8.41,21.2 11.67,25.77 h 616.49 v -86.35"
       inkscape:connector-curvature="0" /><path
       transform="matrix(0.13333333,0,0,-0.13333333,0,241.86667)"
       id="path64"
       style="fill:#ffffff;fill-opacity:1;fill-rule:nonzero;stroke:none"
       d="m 1210.04,548.898 h 625.45 c 0,0 -48.37,-86.347 -174.91,-86.347 h -450.54 v 86.347"
       inkscape:connector-curvature="0" /><path
       transform="matrix(0.13333333,0,0,-0.13333333,0,241.86667)"
       id="path66"
       style="fill:#ffffff;fill-opacity:1;fill-rule:nonzero;stroke:none"
       d="m 1210.04,660.148 h 640.36 v -75 c -3.17,-7.546 -2.94,-6.66 -6.08,-11.347 h -634.28 v 86.347"
       inkscape:connector-curvature="0" /><path
       transform="matrix(0.13333333,0,0,-0.13333333,0,241.86667)"
       id="path68"
       style="fill:#ffffff;fill-opacity:1;fill-rule:nonzero;stroke:none"
       d="m 1191.43,1199.65 h 257.1 v -84.83 h -257.1 v 84.83"
       inkscape:connector-curvature="0" /><path
       transform="matrix(0.13333333,0,0,-0.13333333,0,241.86667)"
       id="path70"
       style="fill:#ffffff;fill-opacity:1;fill-rule:nonzero;stroke:none"
       d="m 1249.41,896.379 h 603.24 c 0,0 -14.23,54.414 -45.62,85.262 h -610.29 c 0,0 14.92,-51.703 52.67,-85.262"
       inkscape:connector-curvature="0" /><path
       transform="matrix(0.13333333,0,0,-0.13333333,0,241.86667)"
       id="path72"
       style="fill:#ffffff;fill-opacity:1;fill-rule:nonzero;stroke:none"
       d="m 1780.64,1004.76 c 0,0 -32.59,23.1 -71.16,34.69 H 1448.5 v 51.35 h -257.03 l -0.23,-85.5 589.4,-0.54"
       inkscape:connector-curvature="0" /><path
       transform="matrix(0.13333333,0,0,-0.13333333,0,241.86667)"
       id="path74"
       style="fill:#ffffff;fill-opacity:1;fill-rule:nonzero;stroke:none"
       d="m 1589.99,766.48 h 260.79 v -85.191 h -260.79 v 85.191"
       inkscape:connector-curvature="0" /><path
       transform="matrix(0.13333333,0,0,-0.13333333,0,241.86667)"
       id="path76"
       style="fill:#ffffff;fill-opacity:1;fill-rule:nonzero;stroke:none"
       d="m 1851.2,871.309 v 5.347 h -576.57 c 0,0 24.45,-19.57 62.97,-28.949 h 251.84 v -55.535 h 261.76 v 79.137"
       inkscape:connector-curvature="0" /></g></svg>